<svg width="30" height="30" viewBox="0 0 30 30" fill="none" xmlns="http://www.w3.org/2000/svg">
<path d="M27.5889 13.3097C27.4121 13.3097 27.2334 13.2633 27.0713 13.1647C25.085 11.9606 23.1651 10.4372 21.3643 8.63588C19.5655 6.83758 18.0411 4.91708 16.835 2.92838C16.5489 2.45618 16.7002 1.84098 17.1719 1.55488C17.6446 1.26968 18.2598 1.41958 18.5459 1.89128C19.668 3.74338 21.0928 5.53678 22.7783 7.22138C24.4658 8.90938 26.2588 10.3337 28.1084 11.4548C28.5801 11.7409 28.7314 12.3557 28.4453 12.8283C28.2568 13.1384 27.9267 13.3097 27.5889 13.3097Z" fill="black"/>
<path d="M12.3105 28.5899C11.9726 28.5899 11.6425 28.4185 11.4541 28.1085C10.3311 26.2564 8.90721 24.4635 7.22171 22.7789C5.53421 21.0909 3.74121 19.6666 1.89161 18.5455C1.41991 18.2594 1.26861 17.6446 1.55471 17.172C1.84181 16.6998 2.45701 16.548 2.92871 16.8356C4.91501 18.0397 6.83491 19.5631 8.63571 21.3644C10.4345 23.1623 11.958 25.0827 13.165 27.0714C13.4511 27.5436 13.3007 28.1588 12.8281 28.4449C12.666 28.543 12.4873 28.5899 12.3105 28.5899Z" fill="black"/>
<path d="M9.81739 29.2173C6.90039 29.2173 4.39359 28.4346 2.97949 27.0205C-0.760708 23.2803 0.154292 12.876 6.51459 6.51463C9.51749 3.51123 13.5273 1.53463 17.8037 0.948727C21.6992 0.414527 25.2334 1.19243 27.0205 2.97953C30.7607 6.71973 29.8457 17.124 23.4853 23.4854C20.4824 26.4888 16.4726 28.4654 12.1962 29.0513C11.3837 29.1626 10.5859 29.2173 9.81739 29.2173ZM20.1992 2.78223C19.5156 2.78223 18.8027 2.83053 18.0752 2.93013C15.8477 3.23533 11.5674 4.29053 7.92869 7.92863C2.17669 13.681 1.66599 22.8788 4.39349 25.6063C5.72749 26.9388 8.68259 27.513 11.9247 27.0697C14.1522 26.7645 18.4325 25.7093 22.0712 22.0712C27.8232 16.3188 28.3339 7.12103 25.6064 4.39353C24.5722 3.35983 22.5625 2.78223 20.1992 2.78223Z" fill="black"/>
<path d="M19.2422 14.586C18.9863 14.586 18.7305 14.4883 18.5352 14.293L15.7071 11.4644C15.3165 11.0738 15.3165 10.4405 15.7071 10.0503C16.0977 9.65967 16.7305 9.65967 17.1212 10.0503L19.9493 12.8789C20.3399 13.2695 20.3399 13.9028 19.9493 14.293C19.754 14.4883 19.498 14.586 19.2422 14.586Z" fill="black"/>
<path d="M17.1211 18.1212C16.8652 18.1212 16.6094 18.0235 16.4141 17.8282L12.1719 13.586C11.7813 13.1954 11.7813 12.5626 12.1719 12.1719C12.5625 11.7813 13.1953 11.7813 13.586 12.1719L17.8282 16.4141C18.2188 16.8047 18.2188 17.4375 17.8282 17.8282C17.6329 18.0235 17.3769 18.1212 17.1211 18.1212Z" fill="black"/>
<path d="M13.5859 20.2427C13.33 20.2427 13.0742 20.145 12.8789 19.9497L10.0508 17.1211C9.66016 16.7305 9.66016 16.0972 10.0508 15.707C10.4414 15.3164 11.0742 15.3164 11.4649 15.707L14.293 18.5356C14.6836 18.9262 14.6836 19.5595 14.293 19.9497C14.0977 20.145 13.8417 20.2427 13.5859 20.2427Z" fill="black"/>
<path d="M10.7578 20.2428C10.5019 20.2428 10.2461 20.1451 10.0508 19.9498C9.66016 19.5592 9.66016 18.9264 10.0508 18.5357L18.5352 10.0503C18.9258 9.65967 19.5586 9.65967 19.9493 10.0503C20.34 10.4409 20.3399 11.0737 19.9493 11.4644L11.4649 19.9498C11.2696 20.1451 11.0136 20.2428 10.7578 20.2428Z" fill="black"/>
</svg>
