<svg width="29" height="28" viewBox="0 0 29 28" fill="none" xmlns="http://www.w3.org/2000/svg">
<path d="M22.4336 24.2935C18.4796 22.4099 14.8884 19.8683 11.7603 16.7397C8.6317 13.6116 6.09018 10.0205 4.20654 6.06642L5.95582 5.23291C7.74432 8.9873 10.1582 12.3978 13.1302 15.3698C16.1022 18.3418 19.5127 20.7557 23.2671 22.5442L22.4336 24.2935Z" fill="black"/>
<path d="M21.6312 14.8496C19.3617 14.8496 17.3428 14.1036 15.8698 12.6301C13.2143 9.97509 12.9205 5.54664 15.1021 1.07373L16.8438 1.92332C15.0354 5.62996 15.1872 9.20784 17.2397 11.2603C19.2926 13.3123 22.8696 13.4656 26.5767 11.6563L27.4263 13.398C25.4348 14.3691 23.4523 14.8496 21.6312 14.8496Z" fill="black"/>
<path d="M12.308 26.404L10.4169 25.9822C11.0171 23.2902 10.5209 20.9809 9.02005 19.48C7.51917 17.9791 5.21083 17.4848 2.5179 18.0832L2.09601 16.1921C5.41001 15.4532 8.4326 16.1528 10.39 18.1102C12.3473 20.0676 13.0464 23.0905 12.308 26.404Z" fill="black"/>
<path d="M22.7202 4.40996L4.90997 22.2202L6.27986 23.5901L24.0901 5.77985L22.7202 4.40996Z" fill="black"/>
<path d="M14.5 27.5625C7.02154 27.5625 0.9375 21.4785 0.9375 14C0.9375 6.52154 7.02154 0.4375 14.5 0.4375C21.9785 0.4375 28.0625 6.52154 28.0625 14C28.0625 21.4785 21.9785 27.5625 14.5 27.5625ZM14.5 2.375C8.09007 2.375 2.875 7.59007 2.875 14C2.875 20.4099 8.09007 25.625 14.5 25.625C20.9099 25.625 26.125 20.4099 26.125 14C26.125 7.59007 20.9099 2.375 14.5 2.375Z" fill="black"/>
</svg>
