<svg width="18" height="22" viewBox="0 0 18 22" fill="none" xmlns="http://www.w3.org/2000/svg">
<path d="M17.1567 5.83312V19.8728C17.1568 20.1686 17.0753 20.4587 16.9211 20.7118C16.7669 20.9649 16.5459 21.1712 16.282 21.3084C16.0181 21.4457 15.7214 21.5085 15.4241 21.4901C15.1268 21.4718 14.8402 21.3729 14.5954 21.2043L9.30667 17.5681C9.21575 17.5056 9.1078 17.4721 8.99724 17.4721C8.88668 17.4721 8.77876 17.5056 8.68785 17.5681L3.40338 21.2043C3.15864 21.3726 2.87218 21.4714 2.57503 21.4896C2.27789 21.5078 1.9814 21.4448 1.71768 21.3077C1.45396 21.1705 1.23304 20.9642 1.07891 20.7112C0.924775 20.4583 0.843294 20.1684 0.843262 19.8728V5.83312C0.844988 4.54473 1.36115 3.30965 2.27858 2.39861C3.19602 1.48758 4.43984 0.974951 5.73728 0.973236H12.2626C13.5601 0.974951 14.8039 1.48758 15.7213 2.39861C16.6388 3.30965 17.1549 4.54473 17.1567 5.83312Z" fill="#0D0D0D"/>
</svg>
