<svg width="14" height="18" viewBox="0 0 14 18" fill="none" xmlns="http://www.w3.org/2000/svg">
<path d="M9.60579 0.452148H4.3442C3.23989 0.453541 2.18122 0.892852 1.40035 1.67372C0.619483 2.45459 0.180172 3.51326 0.17878 4.61757V16.0177C0.178816 16.2978 0.255524 16.5726 0.400582 16.8122C0.545639 17.0518 0.75351 17.2472 1.00168 17.3771C1.24985 17.507 1.52884 17.5665 1.80841 17.5492C2.08799 17.5319 2.35751 17.4383 2.58772 17.2787L6.84871 14.3261C6.8855 14.3009 6.92908 14.2874 6.97369 14.2874C7.0183 14.2874 7.06185 14.3009 7.09864 14.3261L11.3632 17.2787C11.5934 17.438 11.8628 17.5313 12.1422 17.5486C12.4217 17.5658 12.7005 17.5062 12.9485 17.3763C13.1965 17.2464 13.4043 17.0513 13.5493 16.8118C13.6943 16.5723 13.7711 16.2977 13.7712 16.0177V4.61757C13.7698 3.51326 13.3305 2.45459 12.5496 1.67372C11.7688 0.892852 10.7101 0.453541 9.60579 0.452148ZM12.4558 16.0177C12.4568 16.058 12.4463 16.0977 12.4255 16.1322C12.4047 16.1667 12.3744 16.1945 12.3383 16.2124C12.3032 16.2323 12.263 16.2415 12.2227 16.2391C12.1824 16.2366 12.1436 16.2224 12.1112 16.1984L7.84666 13.2457C7.58966 13.0686 7.28492 12.9737 6.9728 12.9737C6.66069 12.9737 6.35594 13.0686 6.09895 13.2457L1.83793 16.1974C1.80538 16.2199 1.76736 16.2332 1.72789 16.2358C1.68841 16.2385 1.64896 16.2303 1.61372 16.2123C1.57848 16.1943 1.54875 16.1672 1.52771 16.1337C1.50666 16.1002 1.49508 16.0616 1.49418 16.0221V4.62196C1.49511 3.86637 1.79567 3.14199 2.32995 2.60771C2.86423 2.07342 3.58861 1.77286 4.3442 1.77193H9.60579C10.3614 1.77286 11.0858 2.07342 11.62 2.60771C12.1543 3.14199 12.4549 3.86637 12.4558 4.62196V16.0221V16.0177Z" fill="#505854"/>
</svg>
