<svg width="24" height="28" viewBox="0 0 24 28" fill="none" xmlns="http://www.w3.org/2000/svg">
<path d="M13.853 0.875C10.373 0.875 8.06488 1.25726 6.51416 2.50098C4.96344 3.74469 4.51465 5.71584 4.51465 8.15894C4.51465 8.24848 4.52735 8.33052 4.5293 8.41895C3.42506 8.51239 2.30948 8.84725 1.52637 9.74463C0.586747 10.8214 0.443491 12.5365 1.27734 14.6335C1.91091 16.4724 2.89271 18.0449 3.92139 19.2441C4.74798 20.2078 5.57323 20.9262 6.375 21.3755V24.3125C6.375 25.8547 7.64525 27.125 9.1875 27.125H18.5625C20.1047 27.125 21.375 25.8547 21.375 24.3125V20.6101C22.2874 19.3089 22.6479 17.4541 22.9021 15.4099C23.1997 13.0171 23.2463 10.3567 23.2463 8.15894C23.2463 5.71323 22.7801 3.74148 21.2175 2.50098C19.6549 1.26048 17.3331 0.875 13.853 0.875ZM13.853 2.75C17.1792 2.75 19.089 3.2042 20.053 3.96948C21.017 4.73476 21.3713 5.93402 21.3713 8.15894C21.3713 10.328 21.3212 12.9323 21.0417 15.1792C20.7905 17.1994 20.2635 18.8674 19.7234 19.625H7.18066C6.67469 19.3141 6.02287 18.8181 5.34229 18.0247C4.45105 16.9857 3.58316 15.5959 3.03882 14.0037L3.03149 13.978L3.02051 13.9561C2.31834 12.2036 2.54678 11.4293 2.93994 10.9788C3.26573 10.6054 3.92556 10.3631 4.70874 10.2866C5.13095 12.7411 6.14231 14.5582 6.44824 15.2964C6.48995 15.4174 6.55599 15.5286 6.6423 15.6231C6.7286 15.7176 6.83335 15.7935 6.95008 15.846C7.06681 15.8985 7.19306 15.9265 7.32104 15.9284C7.44902 15.9302 7.57603 15.9059 7.69424 15.8568C7.81245 15.8077 7.91935 15.7349 8.00837 15.643C8.09739 15.551 8.16663 15.4418 8.21184 15.322C8.25704 15.2023 8.27725 15.0745 8.27122 14.9467C8.26519 14.8188 8.23304 14.6936 8.17676 14.5786C7.63964 13.2826 6.38965 11.1535 6.38965 8.15894C6.38965 5.92953 6.73644 4.72742 7.68604 3.96582C8.63563 3.20422 10.5268 2.75 13.853 2.75ZM8.25 21.5H19.5V24.3125C19.5 24.8403 19.0903 25.25 18.5625 25.25H9.1875C8.65975 25.25 8.25 24.8403 8.25 24.3125V21.5Z" fill="black"/>
</svg>
