<svg width="33" height="32" viewBox="0 0 33 32" fill="none" xmlns="http://www.w3.org/2000/svg">
<path d="M23.5 12.054C23.5 12.3192 23.3946 12.5735 23.2071 12.7611C23.0196 12.9486 22.7652 13.054 22.5 13.054C22.2348 13.054 21.9804 12.9486 21.7929 12.7611C21.6054 12.5735 21.5 12.3192 21.5 12.054C21.5 11.7887 21.6054 11.5344 21.7929 11.3468C21.9804 11.1593 22.2348 11.054 22.5 11.054C22.7652 11.054 23.0196 11.1593 23.2071 11.3468C23.3946 11.5344 23.5 11.7887 23.5 12.054ZM20.5 15.054C20.7652 15.054 21.0196 14.9486 21.2071 14.7611C21.3946 14.5735 21.5 14.3192 21.5 14.054C21.5 13.7887 21.3946 13.5344 21.2071 13.3468C21.0196 13.1593 20.7652 13.054 20.5 13.054C20.2348 13.054 19.9804 13.1593 19.7929 13.3468C19.6054 13.5344 19.5 13.7887 19.5 14.054C19.5 14.3192 19.6054 14.5735 19.7929 14.7611C19.9804 14.9486 20.2348 15.054 20.5 15.054ZM25.5 14.054C25.5 14.3192 25.3946 14.5735 25.2071 14.7611C25.0196 14.9486 24.7652 15.054 24.5 15.054C24.2348 15.054 23.9804 14.9486 23.7929 14.7611C23.6054 14.5735 23.5 14.3192 23.5 14.054C23.5 13.7887 23.6054 13.5344 23.7929 13.3468C23.9804 13.1593 24.2348 13.054 24.5 13.054C24.7652 13.054 25.0196 13.1593 25.2071 13.3468C25.3946 13.5344 25.5 13.7887 25.5 14.054ZM22.5 17.054C22.7652 17.054 23.0196 16.9486 23.2071 16.7611C23.3946 16.5735 23.5 16.3192 23.5 16.054C23.5 15.7887 23.3946 15.5344 23.2071 15.3468C23.0196 15.1593 22.7652 15.054 22.5 15.054C22.2348 15.054 21.9804 15.1593 21.7929 15.3468C21.6054 15.5344 21.5 15.7887 21.5 16.054C21.5 16.3192 21.6054 16.5735 21.7929 16.7611C21.9804 16.9486 22.2348 17.054 22.5 17.054ZM9.5 11.054H11.5V13.054H13.5V15.054H11.5V17.054H9.5V15.054H7.5V13.054H9.5V11.054Z" fill="black"/>
<path d="M6.60201 6.52004C6.56784 6.39305 6.55907 6.26057 6.57617 6.13018C6.59328 5.99979 6.63594 5.87406 6.7017 5.76018C6.76747 5.6463 6.85505 5.54651 6.95943 5.46652C7.06381 5.38654 7.18294 5.32792 7.31001 5.29404L11.174 4.25804C11.3068 4.22264 11.4456 4.21501 11.5815 4.23562C11.7174 4.25624 11.8476 4.30466 11.964 4.37785C12.0803 4.45105 12.1803 4.54745 12.2578 4.66104C12.3352 4.77463 12.3884 4.90297 12.414 5.03804C13.724 4.88004 15.114 4.80404 16.5 4.80404C17.94 4.80404 19.386 4.88604 20.74 5.05604C20.7634 4.91892 20.8151 4.78819 20.8919 4.67221C20.9686 4.55622 21.0688 4.45752 21.1858 4.38242C21.3029 4.30731 21.4344 4.25746 21.5718 4.23605C21.7092 4.21463 21.8496 4.22212 21.984 4.25804L25.848 5.29404C25.9954 5.33351 26.1319 5.4062 26.2469 5.50655C26.3619 5.6069 26.4524 5.73225 26.5115 5.87299C26.5706 6.01372 26.5966 6.16611 26.5877 6.31848C26.5788 6.47085 26.5351 6.61916 26.46 6.75204C26.74 6.93204 26.992 7.13204 27.206 7.34604C28.022 8.16204 28.766 9.44604 29.396 10.89C30.036 12.356 30.594 14.072 31.006 15.822C31.418 17.572 31.686 19.382 31.734 21.034C31.782 22.666 31.616 24.238 31.078 25.454C30.8327 26 30.4211 26.4544 29.9021 26.7525C29.3831 27.0506 28.7832 27.1772 28.188 27.114C26.916 26.98 25.958 26.326 25.162 25.568C24.672 25.104 24.17 24.516 23.684 23.952C23.432 23.656 23.184 23.368 22.948 23.106C21.492 21.498 19.754 20.052 16.5 20.052C13.246 20.052 11.508 21.498 10.052 23.106C9.81401 23.368 9.56801 23.656 9.31601 23.952C8.83001 24.516 8.32801 25.102 7.83801 25.568C7.04201 26.328 6.08401 26.98 4.81201 27.114C4.21682 27.1772 3.6169 27.0506 3.0979 26.7525C2.5789 26.4544 2.16735 26 1.92201 25.454C1.382 24.238 1.218 22.664 1.264 21.034C1.312 19.382 1.584 17.574 1.994 15.822C2.40601 14.072 2.96601 12.356 3.60401 10.89C4.23401 9.44604 4.978 8.16204 5.79201 7.34604C6.05346 7.08959 6.34412 6.86472 6.65801 6.67604C6.63498 6.62502 6.61625 6.57417 6.60201 6.52004ZM10.674 7.34404C8.92001 7.71404 7.73601 8.23004 7.20801 8.76004C6.65601 9.31204 6.03401 10.326 5.43801 11.69C4.80573 13.1732 4.30513 14.7091 3.94201 16.28C3.5584 17.8579 3.3313 19.4697 3.26401 21.092C3.22001 22.602 3.38801 23.828 3.75001 24.644C3.82414 24.803 3.94616 24.9347 4.09896 25.0208C4.25175 25.1069 4.42766 25.143 4.60201 25.124C5.25601 25.056 5.82201 24.726 6.46001 24.12C6.88401 23.716 7.26001 23.274 7.69001 22.772C7.95601 22.46 8.24201 22.126 8.57001 21.764C10.222 19.938 12.456 18.054 16.5 18.054C20.544 18.054 22.778 19.938 24.43 21.764C24.758 22.126 25.044 22.46 25.31 22.772C25.738 23.274 26.116 23.716 26.54 24.12C27.176 24.726 27.742 25.056 28.398 25.126C28.5726 25.1448 28.7487 25.1084 28.9015 25.022C29.0543 24.9355 29.1762 24.8033 29.25 24.644C29.61 23.828 29.78 22.604 29.736 21.092C29.6687 19.4697 29.4416 17.8579 29.058 16.28C28.6948 14.7091 28.1942 13.1732 27.562 11.69C26.966 10.326 26.342 9.31004 25.792 8.76004C25.264 8.23004 24.08 7.71404 22.326 7.34404C20.626 6.98604 18.572 6.80404 16.5 6.80404C14.428 6.80404 12.374 6.98604 10.674 7.34404Z" fill="black"/>
</svg>
