<svg width="18" height="14" viewBox="0 0 18 14" fill="none" xmlns="http://www.w3.org/2000/svg">
<path d="M16.6671 5.93768H17.3072V4.43445C17.3059 3.35273 16.8783 2.31566 16.1183 1.55077C15.3583 0.785882 14.3279 0.355612 13.2532 0.354248H4.71834C3.64355 0.355612 2.61319 0.785882 1.8532 1.55077C1.09321 2.31566 0.665646 3.35273 0.664291 4.43445V5.93768H1.3044C1.58735 5.93768 1.85873 6.05078 2.05881 6.25215C2.25888 6.45351 2.37126 6.72664 2.37126 7.01142C2.37126 7.29619 2.25888 7.56932 2.05881 7.77069C1.85873 7.97205 1.58735 8.08515 1.3044 8.08515H0.664291V9.58838C0.665646 10.6701 1.09321 11.7072 1.8532 12.4721C2.61319 13.2369 3.64355 13.6672 4.71834 13.6686H13.2532C14.3279 13.6672 15.3583 13.2369 16.1183 12.4721C16.8783 11.7072 17.3059 10.6701 17.3072 9.58838V8.08515H16.6671C16.3842 8.08515 16.1128 7.97205 15.9127 7.77069C15.7126 7.56932 15.6002 7.29619 15.6002 7.01142C15.6002 6.72664 15.7126 6.45351 15.9127 6.25215C16.1128 6.05078 16.3842 5.93768 16.6671 5.93768ZM16.027 9.28776V9.58838C16.0261 10.3285 15.7336 11.038 15.2136 11.5614C14.6936 12.0847 13.9886 12.3792 13.2532 12.3801H12.1863V10.4474C12.1863 10.2765 12.1189 10.1127 11.9988 9.99187C11.8788 9.87105 11.716 9.80313 11.5462 9.80313C11.3764 9.80313 11.2136 9.87105 11.0936 9.99187C10.9735 10.1127 10.9061 10.2765 10.9061 10.4474V12.3801H4.71834C3.98295 12.3792 3.27794 12.0847 2.75794 11.5614C2.23794 11.038 1.94542 10.3285 1.94452 9.58838V9.2843C2.4362 9.1442 2.86901 8.84644 3.17723 8.43621C3.48545 8.02599 3.65221 7.52572 3.65221 7.01142C3.65221 6.49711 3.48545 5.99684 3.17723 5.58662C2.86901 5.17639 2.4362 4.87863 1.94452 4.73853V4.43445C1.94542 3.69432 2.23794 2.98481 2.75794 2.46146C3.27794 1.93811 3.98295 1.64364 4.71834 1.64273H10.9061V3.57546C10.9061 3.74632 10.9735 3.91014 11.0936 4.03096C11.2136 4.15178 11.3764 4.2197 11.5462 4.2197C11.716 4.2197 11.8788 4.15178 11.9988 4.03096C12.1189 3.91014 12.1863 3.74632 12.1863 3.57546V1.64273H13.2532C13.9886 1.64364 14.6936 1.93811 15.2136 2.46146C15.7336 2.98481 16.0261 3.69432 16.027 4.43445V4.73853C15.5353 4.87863 15.1025 5.17639 14.7943 5.58662C14.4861 5.99684 14.3193 6.49711 14.3193 7.01142C14.3193 7.52572 14.4861 8.02599 14.7943 8.43621C15.1025 8.84644 15.5353 9.1442 16.027 9.2843V9.28776ZM12.1863 6.15589V7.87386C12.1863 8.04473 12.1189 8.20855 11.9988 8.32936C11.8788 8.45018 11.716 8.51811 11.5462 8.51811C11.3764 8.51811 11.2136 8.45018 11.0936 8.32936C10.9735 8.20855 10.9061 8.04473 10.9061 7.87386V6.15589C10.9061 5.98502 10.9735 5.8211 11.0936 5.70028C11.2136 5.57946 11.3764 5.51164 11.5462 5.51164C11.716 5.51164 11.8788 5.57946 11.9988 5.70028C12.1189 5.8211 12.1863 5.98502 12.1863 6.15589Z" fill="#505854"/>
</svg>
