<svg width="18" height="18" viewBox="0 0 18 18" fill="none" xmlns="http://www.w3.org/2000/svg">
<path d="M17.4912 6.85185C17.3853 6.50298 17.1879 6.19283 16.9218 5.95727C16.6556 5.72172 16.3316 5.57046 15.9873 5.52085L12.3109 4.9646L10.6689 1.50907C10.5131 1.18496 10.2751 0.912633 9.98133 0.72244C9.68759 0.532246 9.34959 0.431641 9.00485 0.431641C8.6601 0.431641 8.3221 0.532246 8.02836 0.72244C7.73462 0.912633 7.49663 1.18496 7.34081 1.50907L5.69876 4.9646L2.02241 5.52085C1.67813 5.57028 1.35417 5.72142 1.08801 5.95682C0.821853 6.19222 0.624393 6.50219 0.518453 6.85094C0.412224 7.19486 0.400616 7.56342 0.484983 7.914C0.569349 8.26458 0.746231 8.5829 0.995141 8.83188L3.64951 11.5199L3.02329 15.3112C2.96375 15.6658 3.00013 16.031 3.12829 16.3649C3.25646 16.6988 3.47123 16.988 3.74802 17.1993C4.0285 17.4175 4.36155 17.5481 4.70915 17.5763C5.05675 17.6045 5.40485 17.5292 5.71371 17.3587L9.00485 15.5613L12.2951 17.3578C12.6042 17.528 12.9524 17.6033 13.3001 17.5751C13.6477 17.5469 13.9809 17.4164 14.2617 17.1984C14.5385 16.9871 14.7532 16.6979 14.8814 16.364C15.0096 16.0301 15.0459 15.6648 14.9864 15.3101L14.3602 11.519L17.0146 8.83086C17.2632 8.58211 17.44 8.26423 17.5243 7.914C17.6087 7.56377 17.5972 7.19549 17.4912 6.85185ZM16.1007 7.82982L13.1931 10.7729C13.1152 10.8517 13.0569 10.9494 13.0233 11.0576C12.9897 11.1657 12.9819 11.2809 13.0005 11.393L13.6865 15.5493C13.7038 15.6487 13.6938 15.7513 13.6574 15.8448C13.6211 15.9383 13.5601 16.0187 13.4816 16.0767C13.3988 16.1409 13.3005 16.1792 13.1981 16.1874C13.0956 16.1956 12.993 16.1734 12.902 16.1231L9.30828 14.1607C9.21451 14.1095 9.11045 14.0829 9.00485 14.0829C8.89924 14.0829 8.79518 14.1095 8.70142 14.1607L5.10773 16.1231C5.01684 16.1739 4.91415 16.1965 4.81157 16.1883C4.70899 16.1801 4.61072 16.1414 4.52814 16.0767C4.44956 16.0186 4.38847 15.9379 4.35214 15.8442C4.31582 15.7506 4.30578 15.6479 4.32321 15.5484L5.00923 11.393C5.02772 11.2809 5.01983 11.1657 4.98625 11.0576C4.95267 10.9495 4.89442 10.8517 4.81662 10.7729L1.90895 7.82982C1.8374 7.76112 1.78651 7.67181 1.76259 7.57296C1.73868 7.47412 1.74278 7.37009 1.77438 7.27368C1.80431 7.17275 1.86137 7.08314 1.93864 7.01569C2.01591 6.94824 2.11007 6.90581 2.20973 6.8936L6.22736 6.28734C6.33278 6.27127 6.43293 6.22867 6.5193 6.16298C6.60568 6.09729 6.67571 6.01047 6.7234 5.91009L8.52024 2.12914C8.56651 2.03612 8.63604 1.95821 8.7213 1.90385C8.80657 1.8495 8.90431 1.8208 9.00396 1.8208C9.10361 1.8208 9.20135 1.8495 9.28662 1.90385C9.37189 1.95821 9.44144 2.03612 9.48771 2.12914L11.2846 5.91009C11.3322 6.01047 11.4022 6.09729 11.4886 6.16298C11.575 6.22867 11.6752 6.27127 11.7806 6.28734L15.7982 6.8927C15.8979 6.9049 15.992 6.94734 16.0693 7.01479C16.1466 7.08224 16.2036 7.17185 16.2335 7.27277C16.2652 7.36918 16.2695 7.47323 16.2459 7.57217C16.2223 7.67111 16.1719 7.76062 16.1007 7.82982Z" fill="#505854"/>
</svg>
