<svg width="29" height="28" viewBox="0 0 29 28" fill="none" xmlns="http://www.w3.org/2000/svg">
<path d="M10.0243 13.0313H6.22744L3.24301 9.54321L1.771 10.8034L4.50597 14L1.771 17.1967L3.24301 18.4569L6.22744 14.9688H10.0243C10.5597 14.9688 10.993 14.5355 10.993 14C10.993 13.4646 10.5597 13.0313 10.0243 13.0313Z" fill="black"/>
<path d="M12.7469 17.0358C12.2844 16.768 11.6912 16.926 11.4234 17.3905L9.52399 20.677L5.01117 21.5248L5.36874 23.4282L9.50297 22.6524L10.9031 26.6249L12.7308 25.9815L11.2026 21.6452L13.1017 18.3592C13.3694 17.8966 13.2105 17.3036 12.7469 17.0358Z" fill="black"/>
<path d="M19.476 20.677L17.5766 17.3905C17.3079 16.926 16.7148 16.768 16.2531 17.0358C15.7895 17.3036 15.6305 17.8967 15.8983 18.3593L17.7974 21.6453L16.2691 25.9816L18.0969 26.625L19.497 22.6525L23.6313 23.4283L23.9888 21.5249L19.476 20.677Z" fill="black"/>
<path d="M27.229 10.8034L25.757 9.54321L22.7725 13.0313H18.9757C18.4403 13.0313 18.007 13.4646 18.007 14C18.007 14.5355 18.4403 14.9688 18.9757 14.9688H22.7725L25.757 18.4569L27.229 17.1967L24.494 14L27.229 10.8034Z" fill="black"/>
<path d="M23.9888 6.47508L23.6313 4.57168L19.497 5.34746L18.0969 1.375L16.2691 2.01835L17.7974 6.35467L15.8983 9.64067C15.6305 10.1032 15.7895 10.6964 16.2531 10.9642C16.4054 11.0521 16.5719 11.0938 16.7365 11.0938C17.0714 11.0938 17.3968 10.9207 17.5766 10.6094L19.476 7.32293L23.9888 6.47508Z" fill="black"/>
<path d="M13.1017 9.64067L11.2026 6.35467L12.7308 2.01835L10.9031 1.375L9.50297 5.34746L5.36874 4.57168L5.01117 6.47508L9.52399 7.32283L11.4234 10.6093C11.6031 10.9206 11.9286 11.0937 12.2635 11.0937C12.4281 11.0937 12.5946 11.052 12.7469 10.9641C13.2105 10.6963 13.3694 10.1032 13.1017 9.64067Z" fill="black"/>
<path d="M16.7374 18.8438H12.2627C11.9164 18.8438 11.5967 18.6593 11.4235 18.3594L9.18611 14.4844C9.013 14.1845 9.013 13.8155 9.18611 13.5156L11.4235 9.64062C11.5967 9.3407 11.9164 9.15625 12.2627 9.15625H16.7374C17.0837 9.15625 17.4034 9.3407 17.5766 9.64062L19.814 13.5156C19.9871 13.8155 19.9871 14.1845 19.814 14.4844L17.5766 18.3594C17.4034 18.6593 17.0837 18.8438 16.7374 18.8438ZM12.8217 16.9062H16.1783L17.8565 14L16.1783 11.0938H12.8217L11.1435 14L12.8217 16.9062Z" fill="black"/>
<path d="M14.5 27.5625C7.02154 27.5625 0.9375 21.4785 0.9375 14C0.9375 6.52154 7.02154 0.4375 14.5 0.4375C21.9785 0.4375 28.0625 6.52154 28.0625 14C28.0625 21.4785 21.9785 27.5625 14.5 27.5625ZM14.5 2.375C8.08959 2.375 2.875 7.58959 2.875 14C2.875 20.4104 8.08959 25.625 14.5 25.625C20.9104 25.625 26.125 20.4104 26.125 14C26.125 7.58959 20.9104 2.375 14.5 2.375Z" fill="black"/>
</svg>
