<svg width="18" height="18" viewBox="0 0 18 18" fill="none" xmlns="http://www.w3.org/2000/svg">
<path d="M5.875 17.1272C2.77319 17.1272 0.25 14.6037 0.25 11.5022C0.25 8.4007 2.77319 5.8772 5.875 5.8772H17.125C17.3258 5.8772 17.5144 5.97363 17.6322 6.13688C17.7494 6.29982 17.7817 6.5092 17.7176 6.69995L16.4676 10.4499C16.3871 10.6916 16.1679 10.8601 15.9141 10.8759L11.4884 11.1524C11.4963 11.2699 11.5 11.3868 11.5 11.5022C11.5 14.6037 8.97681 17.1272 5.875 17.1272ZM5.875 7.1272C3.46287 7.1272 1.5 9.08976 1.5 11.5022C1.5 13.9146 3.46287 15.8772 5.875 15.8772C8.28712 15.8772 10.25 13.9146 10.25 11.5022C10.25 11.2388 10.2231 10.9644 10.1706 10.6868C10.1371 10.5104 10.181 10.3285 10.2909 10.1869C10.4014 10.0449 10.5667 9.9577 10.7456 9.94638L15.4154 9.65463L16.2577 7.1272H5.875Z" fill="#505854"/>
<path d="M5.875 14.6272C4.152 14.6272 2.75 13.2252 2.75 11.5022C2.75 9.7792 4.152 8.3772 5.875 8.3772C7.598 8.3772 9 9.7792 9 11.5022C9 13.2252 7.598 14.6272 5.875 14.6272ZM5.875 9.6272C4.84106 9.6272 4 10.4683 4 11.5022C4 12.5361 4.84106 13.3772 5.875 13.3772C6.90894 13.3772 7.75 12.5361 7.75 11.5022C7.75 10.4683 6.90894 9.6272 5.875 9.6272Z" fill="#505854"/>
<path d="M9 4.6272C8.65456 4.6272 8.375 4.34732 8.375 4.0022V1.5022C8.375 1.15707 8.65456 0.877197 9 0.877197C9.34544 0.877197 9.625 1.15707 9.625 1.5022V4.0022C9.625 4.34732 9.34544 4.6272 9 4.6272Z" fill="#505854"/>
<path d="M6.7905 4.91756C6.63057 4.91756 6.47069 4.8565 6.34863 4.73443L5.46482 3.85062C5.22069 3.6065 5.22069 3.211 5.46482 2.96681C5.70894 2.72262 6.10444 2.72268 6.34863 2.96681L7.23244 3.85062C7.47657 4.09475 7.47657 4.49025 7.23244 4.73443C7.11038 4.8565 6.95038 4.91756 6.7905 4.91756Z" fill="#505854"/>
<path d="M11.2095 4.91754C11.0496 4.91754 10.8897 4.85647 10.7676 4.73441C10.5235 4.49029 10.5235 4.09478 10.7676 3.8506L11.6514 2.96679C11.8956 2.72266 12.2911 2.72266 12.5353 2.96679C12.7794 3.21091 12.7794 3.60641 12.5353 3.8506L11.6514 4.73441C11.5294 4.85647 11.3694 4.91754 11.2095 4.91754Z" fill="#505854"/>
</svg>
