<svg width="24" height="25" viewBox="0 0 24 25" fill="none" xmlns="http://www.w3.org/2000/svg">
<path d="M8.25 22.0132C4.52782 22.0132 1.5 18.985 1.5 15.2632C1.5 11.5414 4.52782 8.51324 8.25 8.51324H21.75C21.991 8.51324 22.2172 8.62897 22.3586 8.82487C22.4992 9.02039 22.5381 9.27164 22.4611 9.50054L20.9611 14.0005C20.8645 14.2906 20.6015 14.4927 20.2969 14.5117L14.986 14.8435C14.9956 14.9845 15 15.1248 15 15.2632C15 18.985 11.9722 22.0132 8.25 22.0132ZM8.25 12.2203C5.35545 12.2203 5.5 12.3683 5.5 15.2632C5.5 18.1582 5.10545 18 8 18C10.8946 18 11.3791 18.1582 11.3791 15.2632C11.3791 14.9472 11.063 13.7295 11 13.3963C10.9597 13.1846 9.86815 12.4302 10 12.2602C10.1326 12.0899 9.78543 12.0136 10 12L19.5 11.5L20.5 12.5L8.25 12.2203Z" fill="black"/>
<path d="M11.25 18H5.25V19.5H11.25V18Z" fill="black"/>
<path d="M8.25 19.0132C6.1824 19.0132 4.5 17.3308 4.5 15.2632C4.5 13.1956 6.1824 11.5132 8.25 11.5132C10.3176 11.5132 12 13.1956 12 15.2632C12 17.3308 10.3176 19.0132 8.25 19.0132ZM8.25 13.0132C7.00927 13.0132 6 14.0225 6 15.2632C6 16.504 7.00927 17.5132 8.25 17.5132C9.49073 17.5132 10.5 16.504 10.5 15.2632C10.5 14.0225 9.49073 13.0132 8.25 13.0132Z" fill="black"/>
<path d="M12 7.01324C11.5855 7.01324 11.25 6.67739 11.25 6.26324V3.26324C11.25 2.84909 11.5855 2.51324 12 2.51324C12.4145 2.51324 12.75 2.84909 12.75 3.26324V6.26324C12.75 6.67739 12.4145 7.01324 12 7.01324Z" fill="black"/>
<path d="M9.34862 7.36154C9.1567 7.36154 8.96485 7.28827 8.81837 7.14179L7.7578 6.08122C7.46485 5.78827 7.46485 5.31367 7.7578 5.02064C8.05075 4.72762 8.52535 4.72769 8.81837 5.02064L9.87895 6.08122C10.1719 6.37417 10.1719 6.84877 9.87895 7.14179C9.73247 7.28827 9.54047 7.36154 9.34862 7.36154Z" fill="black"/>
<path d="M14.6513 7.36155C14.4594 7.36155 14.2676 7.28827 14.1211 7.1418C13.8281 6.84885 13.8281 6.37425 14.1211 6.08122L15.1817 5.02065C15.4746 4.7277 15.9492 4.7277 16.2422 5.02065C16.5353 5.3136 16.5352 5.7882 16.2422 6.08122L15.1817 7.1418C15.0352 7.28827 14.8432 7.36155 14.6513 7.36155Z" fill="black"/>
</svg>
