<svg width="18" height="18" viewBox="0 0 18 18" fill="none" xmlns="http://www.w3.org/2000/svg">
<path d="M16.0137 5.1316L11.6182 1.59701C10.874 1.00482 9.95111 0.682447 9.00014 0.682447C8.04917 0.682447 7.12628 1.00482 6.38213 1.59701L1.98653 5.1316C1.49885 5.52167 1.10549 6.01679 0.835759 6.58007C0.566032 7.14335 0.426898 7.76028 0.428729 8.38482V13.6533C0.430591 14.76 0.871284 15.8207 1.65412 16.6028C2.43696 17.3849 3.49802 17.8246 4.60454 17.8253H7.02212V13.6533C7.02212 13.1286 7.23052 12.6253 7.60147 12.2543C7.97242 11.8833 8.47554 11.675 9.00014 11.675C9.52474 11.675 10.0279 11.8833 10.3988 12.2543C10.7698 12.6253 10.9782 13.1286 10.9782 13.6533V17.8253H13.3957C14.5023 17.8246 15.5633 17.3849 16.3462 16.6028C17.129 15.8207 17.5697 14.76 17.5716 13.6533V8.38482C17.5734 7.76028 17.4342 7.14335 17.1645 6.58007C16.8948 6.01679 16.5014 5.52167 16.0137 5.1316ZM16.2529 13.6497C16.2515 14.4068 15.9499 15.1323 15.4142 15.6672C14.8786 16.2021 14.1527 16.5027 13.3957 16.5029H12.2968V13.6497C12.2968 12.7753 11.9495 11.9367 11.3313 11.3183C10.713 10.7 9.87448 10.3526 9.00014 10.3526C8.1258 10.3526 7.28727 10.7 6.66902 11.3183C6.05077 11.9367 5.70344 12.7753 5.70344 13.6497V16.5029H4.60454C3.84762 16.5027 3.1217 16.2021 2.58606 15.6672C2.05041 15.1323 1.7488 14.4068 1.74741 13.6497V8.38128C1.74645 7.95472 1.84168 7.53343 2.026 7.14876C2.21031 6.76408 2.47899 6.42593 2.81202 6.15944L7.20761 2.62485C7.71707 2.21963 8.34878 1.99901 8.9997 1.99901C9.65062 1.99901 10.2823 2.21963 10.7918 2.62485L15.1874 6.15944C15.5204 6.42593 15.7891 6.76408 15.9734 7.14876C16.1577 7.53343 16.2529 7.95472 16.252 8.38128V13.6497H16.2529Z" fill="#505854"/>
</svg>
