<svg width="22" height="22" viewBox="0 0 22 22" fill="none" xmlns="http://www.w3.org/2000/svg">
<path d="M21.2858 10.1899V16.681C21.2841 17.9727 20.77 19.2107 19.8564 20.1235C18.9429 21.0363 17.7047 21.549 16.4136 21.549H13.7068V16.6743C13.7068 15.9561 13.4217 15.2672 12.914 14.7594C12.4064 14.2515 11.7179 13.9662 11.0001 13.9662C10.2822 13.9662 9.59372 14.2515 9.0861 14.7594C8.57849 15.2672 8.2933 15.9561 8.2933 16.6743V21.549H5.58654C4.29548 21.549 3.05721 21.0363 2.14369 20.1235C1.23016 19.2107 0.716081 17.9727 0.71436 16.681V10.1899C0.713411 9.46207 0.876217 8.74348 1.19072 8.08716C1.50522 7.43083 1.96335 6.8536 2.53113 6.39855L7.94466 2.04519C8.81302 1.35401 9.88989 0.977539 10.9995 0.977539C12.1092 0.977539 13.186 1.35401 14.0544 2.04519L19.4679 6.39855C20.0361 6.85328 20.4946 7.43025 20.8094 8.08663C21.1241 8.74301 21.2869 9.46193 21.2858 10.1899Z" fill="#0D0D0D"/>
</svg>
