<svg width="18" height="16" viewBox="0 0 18 16" fill="none" xmlns="http://www.w3.org/2000/svg">
<path d="M8.975 8.67297C9.79883 8.67297 10.6042 8.42791 11.2892 7.96879C11.9742 7.50967 12.508 6.85713 12.8233 6.09365C13.1386 5.33016 13.2211 4.49008 13.0603 3.67957C12.8996 2.86906 12.5029 2.12452 11.9204 1.54017C11.3378 0.955826 10.5956 0.557922 9.78764 0.396702C8.97964 0.235481 8.14211 0.318191 7.38099 0.634437C6.61987 0.950682 5.96934 1.48626 5.51165 2.17338C5.05395 2.8605 4.80964 3.66829 4.80964 4.49468C4.81104 5.6024 5.25034 6.6644 6.0312 7.44768C6.81205 8.23096 7.87071 8.67158 8.975 8.67297ZM8.975 1.63584C9.53867 1.63584 10.0897 1.80352 10.5584 2.11765C11.027 2.43178 11.3923 2.87822 11.6081 3.4006C11.8238 3.92299 11.8802 4.49784 11.7702 5.0524C11.6603 5.60696 11.3888 6.11636 10.9902 6.51618C10.5917 6.91599 10.0838 7.18823 9.531 7.29853C8.97815 7.40884 8.40513 7.35224 7.88437 7.13586C7.3636 6.91948 6.91849 6.55315 6.60533 6.08301C6.29217 5.61288 6.12502 5.0601 6.12502 4.49468C6.12595 3.73675 6.4265 3.01019 6.96078 2.47425C7.49505 1.93832 8.21942 1.63678 8.975 1.63584ZM14.8942 12.7633V13.5251C14.895 14.2498 14.629 14.9494 14.1471 15.4893C14.0305 15.6186 13.8676 15.6963 13.6941 15.7055C13.5206 15.7147 13.3505 15.6546 13.221 15.5384C13.0914 15.4222 13.013 15.2593 13.0029 15.0853C12.9927 14.9113 13.0516 14.7403 13.1667 14.6097C13.4321 14.3112 13.5786 13.925 13.578 13.5251V12.7633C13.583 12.2359 13.4119 11.7219 13.092 11.3033C12.7721 10.8847 12.3218 10.5855 11.8127 10.4534C11.6468 10.4104 11.4708 10.4327 11.3207 10.5158C10.6033 10.9147 9.7966 11.1241 8.97634 11.1241C8.15608 11.1241 7.34928 10.9147 6.63188 10.5158C6.48107 10.4306 6.30344 10.4067 6.13556 10.449C5.62635 10.5813 5.17587 10.8806 4.85583 11.2993C4.5358 11.7181 4.36456 12.2322 4.36942 12.7598V13.5215C4.36882 13.9215 4.51525 14.3077 4.78069 14.6062C4.89578 14.7367 4.95469 14.9077 4.94452 15.0817C4.93435 15.2557 4.85593 15.4187 4.72642 15.5349C4.5969 15.6511 4.4268 15.7111 4.25328 15.7019C4.07975 15.6928 3.91691 15.615 3.80031 15.4858C3.31855 14.9457 3.05251 14.2462 3.05319 13.5215V12.7598C3.04822 11.9383 3.3171 11.1387 3.81712 10.4881C4.31714 9.8375 5.01958 9.37324 5.81282 9.16906C6.30754 9.04422 6.83119 9.11476 7.27555 9.3661C7.79589 9.65434 8.38059 9.8056 8.975 9.8056C9.56941 9.8056 10.1541 9.65434 10.6745 9.3661C11.1175 9.11632 11.6394 9.04733 12.1319 9.17346C12.9257 9.37669 13.6289 9.84055 14.1295 10.4911C14.6301 11.1417 14.8993 11.9415 14.8942 12.7633ZM13.6165 0.90664C13.6747 0.741715 13.7958 0.60674 13.9532 0.531354C14.1105 0.455968 14.2913 0.446317 14.4557 0.504617C14.9942 0.695515 15.4737 1.02376 15.8473 1.45706C16.2208 1.89036 16.4754 2.41383 16.586 2.97582C16.6966 3.5378 16.6594 4.119 16.4781 4.66219C16.2968 5.20538 15.9776 5.69183 15.5519 6.07367C15.4876 6.13202 15.4125 6.17706 15.3308 6.20618C15.2491 6.23529 15.1625 6.24792 15.0759 6.24333C14.9893 6.23875 14.9045 6.21702 14.8263 6.17944C14.7481 6.14186 14.6782 6.08909 14.6204 6.02428C14.5626 5.95946 14.5181 5.8839 14.4896 5.80179C14.461 5.71968 14.4489 5.63272 14.454 5.54591C14.4591 5.4591 14.4812 5.37413 14.5192 5.29593C14.5571 5.21773 14.61 5.14779 14.675 5.0902C14.9304 4.861 15.122 4.569 15.2308 4.24298C15.3397 3.91697 15.362 3.56824 15.2956 3.23095C15.2292 2.89365 15.0765 2.5794 14.8523 2.31931C14.6282 2.05922 14.3404 1.86216 14.0173 1.74752C13.8531 1.68917 13.7187 1.5679 13.6435 1.41024C13.5684 1.25258 13.5587 1.07147 13.6165 0.90664ZM17.5249 10.5053V11.1404C17.5249 11.3154 17.4557 11.4831 17.3323 11.6069C17.209 11.7306 17.0417 11.8001 16.8673 11.8001C16.6928 11.8001 16.5255 11.7306 16.4022 11.6069C16.2789 11.4831 16.2096 11.3154 16.2096 11.1404V10.5053C16.2136 10.0903 16.0792 9.68581 15.8276 9.35633C15.5761 9.02684 15.2219 8.79126 14.8214 8.68704C14.6522 8.64446 14.5068 8.53618 14.4172 8.38606C14.3276 8.23594 14.3011 8.05626 14.3435 7.88654C14.3859 7.71681 14.4938 7.57098 14.6435 7.48108C14.7931 7.39117 14.9723 7.36463 15.1415 7.4072C15.8264 7.58271 16.4332 7.98302 16.8651 8.54444C17.297 9.10587 17.5293 9.79612 17.5249 10.5053ZM2.39812 6.46421C1.97244 6.08236 1.65324 5.59591 1.47191 5.05272C1.29058 4.50953 1.25339 3.92834 1.36401 3.36635C1.47463 2.80436 1.7292 2.28089 2.10273 1.84759C2.47626 1.4143 2.95585 1.08605 3.49427 0.895151C3.65788 0.840125 3.8365 0.851817 3.9916 0.927686C4.14671 1.00356 4.26586 1.13752 4.32339 1.30072C4.38092 1.46391 4.37223 1.64332 4.29914 1.80013C4.22606 1.95694 4.09445 2.07864 3.93273 2.13902C3.60961 2.25366 3.32181 2.45072 3.09767 2.71081C2.87352 2.9709 2.72076 3.28504 2.65439 3.62234C2.58802 3.95964 2.61033 4.30847 2.71915 4.63448C2.82798 4.9605 3.01957 5.2524 3.27504 5.48159C3.40388 5.59855 3.48136 5.76195 3.49052 5.93601C3.49968 6.11008 3.43981 6.28071 3.32396 6.41063C3.20811 6.54054 3.0457 6.61915 2.87223 6.62935C2.69876 6.63956 2.52831 6.58052 2.39812 6.46507V6.46421ZM3.1286 9.07757C2.72814 9.1818 2.37393 9.41748 2.12237 9.74697C1.87082 10.0765 1.73637 10.4808 1.74044 10.8958V11.5318C1.74044 11.7068 1.67115 11.8745 1.54781 11.9983C1.42447 12.122 1.25718 12.1915 1.08275 12.1915C0.908318 12.1915 0.741029 12.122 0.617688 11.9983C0.494348 11.8745 0.42506 11.7068 0.42506 11.5318V10.8967C0.420835 10.1876 0.65315 9.49745 1.08505 8.93605C1.51695 8.37465 2.12363 7.97425 2.80854 7.79859C2.89336 7.7741 2.98221 7.76697 3.06983 7.77766C3.15746 7.78834 3.24205 7.8166 3.31855 7.86077C3.39506 7.90494 3.46192 7.96419 3.51514 8.03483C3.56837 8.10546 3.60691 8.18604 3.6284 8.27192C3.64989 8.3578 3.65394 8.44719 3.64028 8.53467C3.62662 8.62215 3.5955 8.70592 3.54886 8.7811C3.50223 8.85628 3.44102 8.9213 3.36881 8.97224C3.29661 9.02317 3.21491 9.05898 3.1286 9.07757Z" fill="#505854"/>
</svg>
