<svg width="26" height="23" viewBox="0 0 26 23" fill="none" xmlns="http://www.w3.org/2000/svg">
<path d="M11.125 16.6251C13.4687 18.5001 20.1986 14.8087 16.75 10.5314C13.3956 6.37075 8.31249 9.59387 9.24999 14.2814C7.84374 10.5314 4.56249 8.18762 4.09374 5.84387L5.03124 5.37512C5.03124 5.37512 5.49999 6.78137 7.37499 5.84387C9.24999 4.90637 9.71874 3.96887 8.78124 3.03137C7.84374 2.09387 6.08593 0.531528 4.67968 1.46903C3.27343 2.40653 1.28124 3.96887 1.28124 5.84387C1.28124 7.71887 1.20296 18.344 7.29671 21.6253C11.0467 22.094 18.1562 22.2501 20.9687 14.2814C26.4765 13.305 26.7498 4.90637 20.6561 4.90637C18.7811 4.90637 16.75 6.31262 16.2812 7.71887" stroke="black" stroke-width="1.5" stroke-miterlimit="10" stroke-linecap="round" stroke-linejoin="round"/>
</svg>
