<svg width="18" height="18" viewBox="0 0 18 18" fill="none" xmlns="http://www.w3.org/2000/svg">
<path d="M17.4867 7.23878C17.1536 5.57564 16.3359 4.04828 15.1364 2.84899C13.937 1.6497 12.4094 0.832049 10.7462 0.499187C10.4591 0.441719 10.1629 0.448677 9.8788 0.519527C9.59471 0.590377 9.32985 0.723431 9.10336 0.908984C8.87688 1.09454 8.69437 1.32802 8.56901 1.59262C8.44365 1.85722 8.37855 2.14629 8.37841 2.43908V7.19585C8.3791 7.83525 8.63341 8.44821 9.08554 8.90034C9.53767 9.35246 10.1507 9.60683 10.7901 9.60752H15.5468C15.8395 9.60722 16.1286 9.54195 16.3931 9.41654C16.6576 9.29113 16.8911 9.1087 17.0766 8.88225C17.2621 8.6558 17.3951 8.39099 17.466 8.10697C17.5369 7.82295 17.544 7.52671 17.4867 7.23963V7.23878ZM16.059 8.04906C15.9972 8.12528 15.9191 8.18672 15.8305 8.2289C15.7419 8.27109 15.6449 8.29301 15.5468 8.29292H10.7901C10.4995 8.29246 10.221 8.17682 10.0155 7.97134C9.81002 7.76586 9.69433 7.4873 9.69387 7.19671V2.43994C9.69433 2.26425 9.76436 2.09593 9.88859 1.97169C10.0128 1.84746 10.1812 1.77743 10.3569 1.77696C10.4005 1.77691 10.444 1.78133 10.4867 1.79013C11.8957 2.0719 13.1897 2.76439 14.2059 3.78034C15.222 4.7963 15.9147 6.09029 16.1967 7.49924C16.2157 7.59495 16.2132 7.69374 16.1894 7.78838C16.1656 7.88302 16.121 7.97117 16.059 8.04649V8.04906ZM16.2879 11.8341C15.8771 13.1711 15.1275 14.3792 14.112 15.3409C13.0964 16.3027 11.8494 16.9853 10.492 17.3228C9.1347 17.6603 7.71313 17.641 6.36545 17.2668C5.01776 16.8926 3.78976 16.1762 2.80071 15.1872C1.81166 14.1982 1.09516 12.9703 0.720842 11.6227C0.346525 10.275 0.327082 8.85351 0.664426 7.49613C1.00177 6.13875 1.68442 4.89168 2.64607 3.87605C3.60773 2.86042 4.81572 2.11068 6.15268 1.69978C6.23531 1.67456 6.32211 1.66587 6.40811 1.67419C6.4941 1.68251 6.57758 1.70768 6.65385 1.74827C6.73011 1.78887 6.79767 1.84409 6.85259 1.91078C6.90751 1.97747 6.94876 2.05435 6.97399 2.13698C6.99921 2.21961 7.00789 2.30642 6.99957 2.39241C6.99125 2.4784 6.96609 2.56194 6.92549 2.6382C6.8849 2.71446 6.82968 2.78197 6.76299 2.83689C6.6963 2.89181 6.61942 2.93307 6.53678 2.95829C5.4169 3.3027 4.40511 3.93084 3.59964 4.78171C2.79417 5.63259 2.22239 6.67722 1.93985 7.81429C1.65731 8.95137 1.67363 10.1422 1.98716 11.2711C2.3007 12.4 2.90079 13.4287 3.72923 14.2572C4.55767 15.0858 5.5863 15.686 6.71519 15.9996C7.84408 16.3133 9.03486 16.3297 10.172 16.0473C11.3091 15.7648 12.3539 15.1932 13.2048 14.3878C14.0558 13.5825 14.684 12.5707 15.0285 11.4509C15.084 11.2896 15.1999 11.1562 15.3519 11.0786C15.5038 11.0011 15.6798 10.9855 15.843 11.0352C16.0062 11.0848 16.1437 11.1959 16.2267 11.3449C16.3097 11.4939 16.3316 11.6693 16.2879 11.8341Z" fill="#505854"/>
</svg>
