<svg width="30" height="30" viewBox="0 0 30 30" fill="none" xmlns="http://www.w3.org/2000/svg">
<g clip-path="url(#clip0_8_9907)">
<path d="M15 1.875C13.3839 1.875 11.8339 2.51702 10.6911 3.65982C9.54829 4.80262 8.90627 6.35259 8.90627 7.96875C8.90627 8.3175 8.90627 8.5125 8.93627 8.7375C8.96252 8.9625 9.02065 9.24375 9.16127 9.72563L9.51752 10.9725L8.22002 10.92C7.18537 10.8771 6.15685 11.0986 5.23157 11.5636C4.30628 12.0286 3.51475 12.7217 2.9317 13.5775C2.34864 14.4333 1.99329 15.4236 1.8992 16.4548C1.80511 17.4861 1.97537 18.5243 2.39392 19.4715C2.81246 20.4187 3.46549 21.2436 4.29134 21.8683C5.1172 22.4931 6.08864 22.8971 7.11397 23.0422C8.1393 23.1873 9.18469 23.0687 10.1515 22.6976C11.1182 22.3265 11.9745 21.7151 12.6394 20.9212C12.7833 20.7469 12.9853 20.6304 13.2083 20.5933C13.4313 20.5561 13.6602 20.6007 13.8528 20.719C14.0455 20.8372 14.189 21.0211 14.2568 21.2367C14.3246 21.4524 14.3122 21.6853 14.2219 21.8925L14.2163 21.9019L14.205 21.93L14.16 22.0331C13.8997 22.6144 13.6259 23.1896 13.3388 23.7581C12.626 25.175 11.8335 26.5503 10.965 27.8775C10.9406 27.9112 10.9275 27.9713 10.9669 28.0462C10.9856 28.0837 11.0063 28.1025 11.0231 28.1138C11.0348 28.1215 11.0486 28.1254 11.0625 28.125H18.9375C18.9563 28.125 18.9675 28.1213 18.9788 28.1138C19.0021 28.0968 19.0208 28.0742 19.0331 28.0481C19.0706 27.9731 19.0594 27.9112 19.035 27.8775C17.8201 26.0151 16.7519 24.0611 15.84 22.0331L15.795 21.9319L15.7838 21.9037L15.78 21.8963C15.6916 21.6905 15.6797 21.46 15.7465 21.2463C15.8133 21.0326 15.9544 20.8498 16.1443 20.7311C16.3341 20.6124 16.5602 20.5656 16.7816 20.5991C17.003 20.6326 17.205 20.7442 17.3513 20.9137C18.4781 22.2262 20.1938 23.1037 22.0313 23.1037C22.8379 23.0966 23.6351 22.9294 24.3767 22.6118C25.1182 22.2942 25.7893 21.8326 26.3511 21.2536C26.9128 20.6746 27.354 19.9899 27.649 19.2391C27.9441 18.4883 28.0871 17.6864 28.0699 16.8799C28.0526 16.0734 27.8754 15.2784 27.5485 14.5409C27.2216 13.8034 26.7516 13.1381 26.1656 12.5837C25.5796 12.0293 24.8894 11.5968 24.1349 11.3112C23.3805 11.0256 22.5769 10.8926 21.7706 10.92L20.46 10.9762L20.8331 9.71813C21.0956 8.83687 21.0956 8.32125 21.0938 7.98V7.96875C21.0938 6.35259 20.4518 4.80262 19.309 3.65982C18.1662 2.51702 16.6162 1.875 15 1.875ZM19.1381 24.42C19.56 25.1794 20.0513 26.01 20.6006 26.8463C21.4444 28.125 20.5781 30 18.9375 30H11.0625C9.42002 30 8.55377 28.125 9.3994 26.8444C9.94502 26.0156 10.4344 25.1944 10.8544 24.4388C9.7978 24.8478 8.66612 25.0268 7.53486 24.9639C6.4036 24.901 5.29876 24.5975 4.29405 24.0738C3.28934 23.5501 2.40787 22.8181 1.70843 21.9268C1.00898 21.0354 0.507659 20.0052 0.237894 18.9048C-0.0318702 17.8043 -0.0638713 16.659 0.144026 15.5453C0.351923 14.4315 0.794938 13.3748 1.44352 12.4458C2.0921 11.5168 2.93133 10.7368 3.90522 10.1578C4.87912 9.57879 5.96529 9.21413 7.09127 9.08813C7.08519 9.04819 7.07956 9.00819 7.0744 8.96813C7.03127 8.6175 7.03127 8.31563 7.03127 7.99312V7.96875C7.03127 5.85531 7.87084 3.82842 9.36527 2.33399C10.8597 0.839562 12.8866 0 15 0C17.1135 0 19.1404 0.839562 20.6348 2.33399C22.1292 3.82842 22.9688 5.85531 22.9688 7.96875C22.9688 8.23125 22.9688 8.59313 22.8938 9.08625C24.9239 9.30287 26.7934 10.2904 28.1166 11.8452C29.4399 13.3999 30.116 15.4032 30.0053 17.4419C29.8947 19.4805 29.0058 21.3989 27.5221 22.8013C26.0383 24.2037 24.0729 24.9831 22.0313 24.9787C21.0403 24.9768 20.0586 24.7872 19.1381 24.42Z" fill="black"/>
</g>
<defs>
<clipPath id="clip0_8_9907">
<rect width="30" height="30" fill="white"/>
</clipPath>
</defs>
</svg>
