<svg width="16" height="18" viewBox="0 0 16 18" fill="none" xmlns="http://www.w3.org/2000/svg">
<path d="M15.2197 4.00309C12.4935 3.09815 9.17189 1.37864 8.45867 0.657846C8.33573 0.533646 8.16847 0.463028 7.99346 0.461426C7.81973 0.466355 7.65357 0.533556 7.52557 0.650781C5.54534 2.27396 3.23796 3.45316 0.760131 4.10831C0.621856 4.14728 0.500163 4.23027 0.413491 4.34455C0.326819 4.45883 0.279946 4.59818 0.279999 4.74146C0.279999 11.9591 1.40477 15.7156 7.7947 17.536C7.91307 17.5699 8.03864 17.5699 8.15701 17.536C14.5856 15.7042 15.67 12.0739 15.67 4.62746C15.6703 4.48941 15.6269 4.35483 15.5461 4.24275C15.4652 4.13068 15.351 4.04677 15.2197 4.00309ZM7.97586 16.2189C2.69489 14.6607 1.64395 11.9223 1.60086 5.23342C3.9125 4.54411 6.08066 3.44499 8.00135 1.9889C9.98562 3.27364 12.117 4.31701 14.3499 5.09662C14.3077 11.8889 13.263 14.6581 7.97586 16.2189Z" fill="#505854"/>
</svg>
