<svg width="30" height="30" viewBox="0 0 30 30" fill="none" xmlns="http://www.w3.org/2000/svg">
<path d="M6.5 13.0095L16.9904 23.4999H19.1272C19.206 23.1726 19.135 22.8163 18.8794 22.5608L7.4385 11.1198C7.1831 10.8644 6.8271 10.7933 6.5 10.8719V13.0095Z" fill="black"/>
<path d="M6.08791 29.154C5.82281 29.154 5.56841 29.049 5.38091 28.861L1.13821 24.6183C0.944407 24.4249 0.838907 24.1603 0.845707 23.8864C0.852507 23.6125 0.971207 23.3537 1.17431 23.1696L6.79541 18.0837C4.62791 13.635 5.59181 8.14425 9.27001 4.46605C11.5303 2.20575 14.499 0.920646 17.6284 0.847846C20.7793 0.789246 23.709 1.93375 25.8867 4.11245C28.0649 6.29065 29.2246 9.22325 29.1513 12.3707C29.0785 15.5001 27.7934 18.4688 25.5331 20.7291C21.8554 24.4073 16.3637 25.3692 11.9149 23.2037L6.82951 28.8248C6.64541 29.0279 6.38661 29.1466 6.11271 29.1534L6.08791 29.154ZM3.29591 23.9475L6.05181 26.7034L10.9546 21.284C11.2715 20.9339 11.7896 20.8514 12.1983 21.0902C15.9781 23.2845 20.8799 22.5541 24.1192 19.3153C26.0142 17.4203 27.0914 14.9374 27.1519 12.3246C27.2124 9.72895 26.2608 7.31485 24.4727 5.52675C22.6851 3.73865 20.2623 2.78115 17.6748 2.84755C15.062 2.90805 12.5791 3.98525 10.6841 5.88025C7.44531 9.11955 6.71531 14.0213 8.90921 17.8006C9.14651 18.2088 9.06541 18.7274 8.71541 19.0443L3.29591 23.9475Z" fill="black"/>
<path d="M20 17.9993C17.7944 17.9993 16 16.2049 16 13.9993C16 11.7937 17.7944 9.99927 20 9.99927C22.2056 9.99927 24 11.7937 24 13.9993C24 16.2049 22.2056 17.9993 20 17.9993ZM20 11.9993C18.897 11.9993 18 12.8963 18 13.9993C18 15.1023 18.897 15.9993 20 15.9993C21.103 15.9993 22 15.1023 22 13.9993C22 12.8963 21.103 11.9993 20 11.9993Z" fill="black"/>
</svg>
