<svg width="29" height="28" viewBox="0 0 29 28" fill="none" xmlns="http://www.w3.org/2000/svg">
<path d="M9.2864 10.8366L7.99225 9.39477C10.2458 7.37115 15.0659 3.85284 22.0202 3.03076L22.2473 4.95499C15.8236 5.7142 11.3696 8.96571 9.2864 10.8366Z" fill="black"/>
<path d="M13.7649 21.9392C10.8851 20.9988 5.42833 18.5835 1.24023 12.9721L2.79362 11.8132C6.66107 16.9961 11.7044 19.2283 14.3666 20.0973L13.7649 21.9392Z" fill="black"/>
<path d="M20.2396 25.9974L18.4592 25.2321C21.0135 19.2905 20.4251 13.8068 19.847 11.0669L21.7428 10.6667C22.3682 13.6312 23.0049 19.5648 20.2396 25.9974Z" fill="black"/>
<path d="M26.4495 10.9678L26.4212 9.03029C20.1554 9.12223 15.7694 11.8762 14.3655 12.8875C12.9806 12.2494 8.78788 10.0088 5.90624 5.16382L4.24115 6.15437C7.44616 11.5432 12.0276 13.964 13.6055 14.6734C13.7483 16.188 13.9108 20.9243 11.1368 25.868L12.8264 26.816C15.8964 21.345 15.7048 16.1642 15.5307 14.4403C16.7763 13.5604 20.8136 11.0505 26.4495 10.9678Z" fill="black"/>
<path d="M14.5 27.5625C7.02154 27.5625 0.9375 21.4785 0.9375 14C0.9375 6.52154 7.02154 0.4375 14.5 0.4375C21.9785 0.4375 28.0625 6.52154 28.0625 14C28.0625 21.4785 21.9785 27.5625 14.5 27.5625ZM14.5 2.375C8.08959 2.375 2.875 7.59007 2.875 14C2.875 20.4099 8.08959 25.625 14.5 25.625C20.9104 25.625 26.125 20.4099 26.125 14C26.125 7.59007 20.9104 2.375 14.5 2.375Z" fill="black"/>
</svg>
